<svg width="10" height="11" viewBox="0 0 10 11" fill="none" xmlns="http://www.w3.org/2000/svg">
<path id="Vector 1" d="M5.6 1C5.6 0.668629 5.33137 0.4 5 0.4C4.66863 0.4 4.4 0.668629 4.4 1L5.6 1ZM4.57574 10.4243C4.81005 10.6586 5.18995 10.6586 5.42426 10.4243L9.24264 6.60589C9.47696 6.37157 9.47696 5.99167 9.24264 5.75736C9.00833 5.52304 8.62843 5.52304 8.39411 5.75736L5 9.15147L1.60589 5.75736C1.37157 5.52304 0.991674 5.52304 0.757359 5.75736C0.523045 5.99167 0.523045 6.37157 0.757359 6.60589L4.57574 10.4243ZM4.4 1L4.4 10L5.6 10L5.6 1L4.4 1Z" fill="white"/>
</svg>
