<svg width="11" height="11" viewBox="0 0 11 11" fill="none" xmlns="http://www.w3.org/2000/svg">
<path id="Vector" d="M7.3338 7.81763L8.28101 6.87004C8.40859 6.74399 8.57 6.65771 8.74564 6.62167C8.92129 6.58562 9.10362 6.60136 9.2705 6.66698L10.4249 7.12809C10.5935 7.19657 10.7382 7.31345 10.8405 7.46402C10.9428 7.61458 10.9983 7.79208 11 7.97415V10.0893C10.999 10.2132 10.973 10.3355 10.9235 10.4491C10.874 10.5626 10.802 10.6649 10.712 10.7499C10.6219 10.8349 10.5155 10.9007 10.3994 10.9435C10.2832 10.9863 10.1595 11.0051 10.0359 10.9988C1.94656 10.4954 0.314319 3.64231 0.00563143 1.01952C-0.00869808 0.890724 0.00439441 0.760351 0.0440475 0.636979C0.0837006 0.513607 0.149016 0.400032 0.235696 0.303726C0.322376 0.207421 0.428457 0.130567 0.546959 0.0782204C0.665462 0.0258741 0.7937 -0.000778021 0.923238 1.72889e-05H2.96565C3.14791 0.000556986 3.32584 0.0556321 3.47655 0.158159C3.62727 0.260685 3.74387 0.405975 3.81137 0.575339L4.27229 1.73021C4.34006 1.89649 4.35735 2.07906 4.322 2.25511C4.28665 2.43117 4.20024 2.5929 4.07355 2.72011L3.12634 3.66769C3.12634 3.66769 3.67183 7.36075 7.3338 7.81763Z" fill="#F24822"/>
</svg>
