<?xml version="1.0" standalone="no"?>
<!DOCTYPE svg PUBLIC "-//W3C//DTD SVG 20010904//EN"
 "http://www.w3.org/TR/2001/REC-SVG-20010904/DTD/svg10.dtd">
<svg version="1.0" xmlns="http://www.w3.org/2000/svg"
 width="528.000000pt" height="528.000000pt" viewBox="0 0 528.000000 528.000000"
 preserveAspectRatio="xMidYMid meet">
<metadata>
Created by potrace 1.14, written by Peter Selinger 2001-2017
</metadata>
<g transform="translate(0.000000,528.000000) scale(0.100000,-0.100000)"
fill="#000000" stroke="none">
<path d="M1943 3520 c-106 -35 -187 -107 -236 -210 -25 -52 -32 -80 -35 -150
-3 -71 -8 -89 -27 -110 -48 -52 -82 -149 -78 -223 l2 -27 -30 17 -29 17 21 22
c26 28 38 80 27 119 -5 17 -9 62 -10 100 -2 222 -187 401 -419 407 -77 2 -120
-6 -177 -34 l-43 -20 -22 20 c-35 33 -74 42 -150 38 -203 -14 -424 -146 -568
-341 -72 -98 -131 -225 -145 -313 -3 -20 -9 -41 -12 -46 -12 -20 -11 -235 2
-307 21 -114 90 -295 119 -307 4 -2 7 -8 7 -14 0 -16 84 -120 141 -173 160
-150 343 -225 564 -231 248 -7 459 76 633 248 48 48 62 57 62 42 0 -46 35
-118 79 -165 73 -77 169 -98 279 -63 47 15 52 15 67 0 40 -39 88 -54 170 -52
89 3 124 17 178 71 34 34 37 34 82 26 26 -5 59 -6 74 -1 14 4 51 4 81 0 35 -5
70 -3 97 5 36 11 45 10 70 -6 37 -25 90 -39 161 -43 33 -2 64 -6 71 -10 6 -4
40 -8 75 -7 65 0 130 20 179 54 23 16 50 20 160 23 73 3 137 6 144 9 6 2 74
-1 150 -6 76 -5 149 -10 163 -11 37 -2 101 12 123 27 17 12 26 9 71 -19 28
-18 68 -37 90 -44 59 -17 173 -9 227 17 41 19 64 22 225 24 154 2 183 5 206
20 26 18 28 18 60 0 24 -13 55 -18 118 -18 73 0 93 4 143 28 70 35 128 100
167 188 27 59 29 70 24 154 -10 155 -48 228 -146 279 -47 24 -51 24 -270 22
-123 -2 -227 -4 -233 -6 -26 -6 -43 2 -49 23 -10 41 -84 115 -144 144 -48 24
-69 28 -137 28 -44 -1 -89 -3 -100 -6 -62 -15 -155 -82 -204 -146 -30 -38 -37
-43 -65 -38 -17 3 -43 7 -58 9 -15 3 -50 -2 -77 -9 -41 -10 -61 -11 -98 -1
-27 6 -61 11 -78 10 -84 -5 -235 -7 -238 -3 -1 2 -15 24 -31 48 l-28 43 21 22
c29 31 73 132 79 181 2 26 -2 63 -12 93 -14 42 -15 58 -6 93 34 127 -54 239
-195 245 -33 1 -66 3 -72 3 -7 1 -13 7 -13 14 0 27 -55 96 -94 118 -38 22 -53
23 -209 24 -194 1 -226 -6 -277 -63 -34 -37 -37 -39 -50 -22 -21 24 -79 53
-119 57 -22 2 -45 16 -68 39 -56 58 -143 92 -233 92 -44 0 -97 -8 -127 -18z"/>
</g>
</svg>
